<?xml version="1.0" encoding="UTF-8"?>
<svg id="Layer_1" data-name="Layer 1" xmlns="http://www.w3.org/2000/svg" viewBox="0 0 326.38 357.65">
  <defs>
    <style>
      .cls-1 {
        fill-rule: evenodd;
      }

      .cls-1, .cls-2 {
        fill: #fff;
        stroke-width: 0px;
      }
    </style>
  </defs>
  <path class="cls-1" d="M224.51,83.9c0,18.92-7.42,36.1-19.49,48.82l-42.45-48.83,42.45-48.82c12.07,12.72,19.49,29.91,19.49,48.83ZM153.53,12.92c17.78,0,34.02,6.55,46.47,17.35h-8.9s-75.14,0-75.14,0h0s-8.9,0-8.9,0c12.45-10.8,28.69-17.35,46.47-17.35ZM102.04,35.07l42.45,48.82-42.45,48.83c-12.07-12.72-19.49-29.9-19.49-48.82s7.42-36.11,19.49-48.83ZM153.53,73.49l-26.3-30.25h52.6l-26.3,30.25ZM153.53,94.3l26.32,30.26h-52.63l26.31-30.26ZM153.53,154.88c-17.78,0-34.02-6.55-46.47-17.35h92.94c-12.45,10.8-28.69,17.35-46.47,17.35ZM237.43,83.9C237.43,37.56,199.86,0,153.53,0s-83.9,37.56-83.9,83.9,37.56,83.9,83.9,83.9,83.9-37.56,83.9-83.9Z"/>
  <g>
    <path class="cls-2" d="M318.4,353.56l-.03-.69s-.05-4.31-.05-5.15.05-5.18.05-5.18l.03-.66c2.96,0,3.65,3.54,3.65,5.5,0,4.89-2.75,6.18-3.65,6.18M318.56,337.78h-3.83s-.87-.08-.87.87c0,.53.1,7.64.1,9.06s-.1,8.56-.1,9.01c0,.93.87.93.87.93h3.83c5.6,0,7.82-4.99,7.82-10.28,0-4.41-1.45-9.59-7.82-9.59M311.19,338.28c0-.53-.58-.5-.58-.5h-3.28s-.55,0-.55.5c0,.21.03,4.1.05,4.97-.03.9-.05,4.97-.05,4.97,0,0-1.64-3.96-2.01-4.94-.34-1-1.8-4.73-1.9-4.99-.21-.53-.69-.5-.69-.5h-3.78s-.42-.03-.42.5c0,.26.08,8.45.08,9.43s-.08,9.17-.08,9.41c0,.53.53.53.53.53h3.28s.61,0,.61-.53c0-.24-.05-3.28-.05-5.05s.05-5.07.05-5.07l2.01,5.07c-.26-.69,1.8,4.81,1.9,5.05.18.53.85.53.85.53h3.54s.5,0,.5-.53c0-.24-.08-8.37-.08-9.41s.08-9.17.08-9.43M289.88,351.18h-1.69s-.5.05-.42-.53l1.24-8.77.03-.08v.08l1.27,8.77c.08.58-.42.53-.42.53M296.25,356.91s-1.16-4.57-2.25-9.2l-2.14-9.25c-.16-.71-1-.69-1-.69h-3.65s-.85-.03-1,.69c-.08.34-1.08,4.81-2.14,9.25-1.08,4.6-2.25,9.2-2.25,9.2-.19.79.71.74.71.74h3.43c.56,0,.64-.5.64-.5l.42-2.06c.08-.37.45-.34.45-.34h3.12s.37-.03.45.34l.42,2.06s.08.5.63.5h3.44s.9.05.71-.74M280.11,353.77c0-.42-.53-.42-.53-.42h-3.04s-.42.03-.42-.5c0-.37-.03-4.54-.03-5.13l.03-9.43c0-.53-.48-.5-.48-.5h-3.57s-.48-.03-.48.5c0,.26.08,7.82.08,9.43s-.08,9.17-.08,9.43c0,.5.5.5.5.5h7.45s.55,0,.55-.5v-3.38ZM268.93,338.28c0-.53-.58-.5-.58-.5h-3.28s-.56,0-.56.5c0,.21.03,4.1.05,4.97-.03.9-.05,4.97-.05,4.97,0,0-1.64-3.96-2.01-4.94-.34-1-1.8-4.73-1.9-4.99-.21-.53-.69-.5-.69-.5h-3.78s-.42-.03-.42.5c0,.26.08,8.45.08,9.43s-.08,9.17-.08,9.41c0,.53.53.53.53.53h3.28s.61,0,.61-.53c0-.24-.05-3.28-.05-5.05s.05-5.07.05-5.07l2.01,5.07c-.27-.69,1.8,4.81,1.9,5.05.19.53.85.53.85.53h3.54s.5,0,.5-.53c0-.24-.08-8.37-.08-9.41s.08-9.17.08-9.43M253.08,338.28c0-.58-.64-.5-.64-.5h-3.25s-.63-.05-.63.5c0,.29.08,7.95.08,9.43s-.08,9.17-.08,9.41c0,.53.63.53.63.53h3.22s.66.05.66-.53c0-.26-.05-7.74-.05-9.41s.05-9.17.05-9.43M242.39,341.88h3.43c.74.03.69-.48.69-.48v-3.17s0-.45-.66-.45h-7.35c-.79,0-.77.74-.77.74,0,0,.08,8.24.08,8.77l-.08,9.96c0,.42.42.4.42.4h3.83c.58,0,.53-.64.53-.64,0,0-.05-.47-.05-1.56-.03-1.19,0-5.65,0-5.95,0-.18.11-.21.26-.21h2.93c.5,0,.45-.4.45-.4v-2.85s.05-.4-.45-.4h-3.28c-.13,0-.13-.21-.13-.21v-3.44s-.03-.13.13-.13"/>
    <g>
      <path class="cls-2" d="M229.06,309.57c-.13-1.57-1.57-1.49-1.57-1.49,0,0-1.44-.09-1.57,1.49-.12,1.51-.11,2.98-.11,3.09s-.02,1.58.11,3.09c.13,1.57,1.57,1.49,1.57,1.49,0,0,1.44.08,1.57-1.49.12-1.51.11-2.98.11-3.09s.02-1.58-.11-3.09Z"/>
      <path class="cls-2" d="M210.03,307.32c-1.95,0-2.11,2.34-2.11,2.81s.94.45.94.45h2.2c1.06,0,.94-.44.94-.44,0,0,.03-2.82-1.97-2.82Z"/>
      <path class="cls-2" d="M151.72,309.57c-.13-1.57-1.57-1.49-1.57-1.49,0,0-1.44-.09-1.57,1.49-.12,1.51-.11,2.98-.11,3.09,0,.11-.02,1.73.11,3.24.07.91.59,1.26,1.01,1.4.29.13.54.11.54.11,0,0,.19.01.42-.06.44-.09,1.1-.41,1.18-1.45.12-1.51.11-3.13.11-3.24s.02-1.58-.11-3.09Z"/>
      <path class="cls-2" d="M246.37,307.32c-1.95,0-2.11,2.34-2.11,2.81s.94.45.94.45h2.2c1.06,0,.94-.44.94-.44,0,0,.03-2.82-1.97-2.82Z"/>
      <path class="cls-2" d="M292.51,309.57c-.13-1.57-1.57-1.49-1.57-1.49,0,0-1.44-.09-1.57,1.49-.12,1.51-.11,2.98-.11,3.09,0,.11-.02,1.73.11,3.24.07.91.59,1.26,1.01,1.4.29.13.54.11.54.11,0,0,.19.01.42-.06.44-.09,1.1-.41,1.18-1.45.12-1.51.11-3.13.11-3.24s.02-1.58-.11-3.09Z"/>
      <path class="cls-2" d="M41.85,310.58h2.2c1.06,0,.94-.44.94-.44,0,0,.03-2.82-1.97-2.82s-2.11,2.34-2.11,2.82.94.44.94.44Z"/>
      <path class="cls-2" d="M23.97,294.01v36.48h301.64v-68.92L23.97,294.01ZM42.77,324.24c-7.86,0-8.29-9.72-8.29-9.72,0,0-1.55-12.9,8.18-12.9s8.31,12.14,8.08,12.9c-.2.68-1.26.63-1.26.63h-8.55c0,1.72.08,3.64,2.09,3.64,1.43,0,1.7-.95,1.82-1.4.15-.57.95-.48.95-.48h3.67c.79,0,.75.61.75.61,0,0,.41,6.72-7.45,6.72ZM68.68,323.69h-5.64s-.6,0-.95-.62c-.32-.57-2-4.17-2-4.17,0,0-.16-.32-.49-.32s-.49.32-.49.32c0,0-1.67,3.6-2,4.17-.35.62-.95.62-.95.62h-5.64c-.61,0,0-.99,0-.99,0,0,5.5-9.15,5.7-9.58.2-.43,0-.87,0-.87,0,0-4.95-8.79-5.37-9.54-.43-.75.75-.63.75-.63h5.07c.89,0,1.1.57,1.1.57,0,0,1.26,2.92,1.47,3.36.22.51.37.45.37.45,0,0,.13.06.37-.45.2-.45,1.46-3.36,1.46-3.36,0,0,.2-.57,1.1-.57h5.07s1.18-.12.75.63c-.43.75-5.37,9.54-5.37,9.54,0,0-.2.44,0,.87.2.43,5.7,9.58,5.7,9.58,0,0,.61.99,0,.99ZM79.59,307.4h-1.38v15.59s.04.7-1.06.7h-4.15c-1.1,0-1.06-.7-1.06-.7v-15.59h-1.38c-.7,0-.67-.67-.67-.67v-4c0-.63.62-.63.62-.63h1.43v-5.36c0-.61.81-.55.81-.55h4.64s.81-.06.81.55v5.36h1.43s.62,0,.62.63v4s.03.67-.67.67ZM88.86,322.99s.04.7-1.06.7h-4.15c-1.1,0-1.06-.7-1.06-.7v-20.35c0-.62.81-.55.81-.55h4.64s.81-.06.81.55v20.35ZM85.72,299.78c-2.08,0-3.77-1.64-3.77-3.66s1.69-3.66,3.77-3.66,3.77,1.64,3.77,3.66-1.69,3.66-3.77,3.66ZM106.11,307.4v15.59s.04.7-1.06.7h-3.81c-1.1,0-1.06-.7-1.06-.7v-13.37s.11-1.46-.98-1.46c-1.34,0-1.8.99-1.81,1.45v13.38s.04.7-1.06.7h-4.15c-1.1,0-1.06-.7-1.06-.7v-20.35c0-.62.81-.55.81-.55h4.64s.81-.06.81.55v1.63c.49-.02.87-.24.99-.33.39-.29,1.87-2.37,3.85-2.37,4.32,0,3.87,5.83,3.87,5.83ZM119.3,307.66c0,.67-.51.44-.51.44,0,0-.86-.43-1.43-.43-2.76,0-2.77,5.04-2.77,5.21h0c0,.18,0,5.22,2.77,5.22.57,0,1.43-.43,1.43-.43,0,0,.51-.22.51.45v3.54s.01.47-.19.96c-.66,1.26-3.06,1.39-3.67,1.39-1.15,0-7.77.5-7.78-11.11h0c0-11.62,7.39-11.34,8.16-11.34.61,0,1.91.26,2.52.75.19.16.59.44.77.86.21.49.19.95.19.95v3.54ZM131.53,306.73s.03.67-.67.67h-1.38v15.59s.04.7-1.06.7h-4.15c-1.1,0-1.06-.7-1.06-.7v-15.59h-1.38c-.7,0-.67-.67-.67-.67v-4c0-.63.62-.63.62-.63h1.43v-5.36c0-.61.81-.55.81-.55h4.64s.81-.06.81.55v5.36h1.43s.62,0,.62.63v4ZM139.27,322.99s.04.7-1.06.7h-4.15c-1.1,0-1.06-.7-1.06-.7v-20.35c0-.62.81-.55.81-.55h4.64s.81-.06.81.55v20.35ZM136.14,299.78c-2.08,0-3.77-1.64-3.77-3.66s1.69-3.66,3.77-3.66,3.77,1.64,3.77,3.66-1.69,3.66-3.77,3.66ZM158.45,312.96c0,10.79-6.63,11.08-7.78,11.08-.14,0-.33,0-.53,0-.22,0-.45-.02-.59-.02-1.15,0-7.77-.98-7.77-11.07h0c0-11.62,7.39-11.34,8.16-11.34.05,0,.11,0,.17,0,.06,0,.12,0,.17,0,.77,0,8.16-.28,8.16,11.33h0ZM175.44,307.4v15.59s.04.7-1.06.7h-3.81c-1.1,0-1.06-.7-1.06-.7v-13.36s.11-1.46-.98-1.46c-1.34,0-1.8,1-1.81,1.45v13.37s.04.7-1.06.7h-4.15c-1.1,0-1.06-.7-1.06-.7v-20.34c0-.62.81-.55.81-.55h4.64s.81-.07.81.55v1.63c.49-.02.87-.24.99-.33.39-.29,1.87-2.37,3.85-2.37,4.31,0,3.87,5.83,3.87,5.83ZM200.26,307.9s.02.55-.41.55c-.37,0-4.83-.33-4.84,2.91v11.63s.04.7-1.06.7h-4.15c-1.1,0-1.06-.7-1.06-.7v-20.35c0-.61.81-.55.81-.55h4.64s.81-.06.81.55v1.63c.27-.02.82-.12,1.29-.65.65-.73,1.83-2.07,3.54-2.07.35,0,.41.2.41.53v5.81ZM217.76,314.52c-.21.68-1.26.63-1.26.63h-8.55c0,1.72.08,3.65,2.09,3.65,1.43,0,1.7-.95,1.82-1.4.15-.57.95-.49.95-.49h3.66c.79,0,.76.61.76.61,0,0,.41,6.72-7.45,6.72s-8.29-9.72-8.29-9.72c0,0-1.55-12.9,8.18-12.9s8.31,12.14,8.08,12.9ZM230.69,324c-.94,0-1.94.05-3.05-.93-1.26-1.12-1.21-1.25-1.54-1.2-.07.01-.19.07-.19.21v.91s.04.7-1.06.7h-4.15c-1.1,0-1.06-.7-1.06-.7v-33.43s-.04-.7,1.06-.7h4.15c1.1,0,1.06.7,1.06.7v3.89h0v10.83c.27,0,.79-.1,1.28-.62.7-.75,2.04-2.09,3.5-2.09s5.54,1.14,5.54,10.42-3.83,12.03-5.54,12.03ZM254.1,314.52c-.2.68-1.26.63-1.26.63h-8.55c0,1.72.09,3.65,2.09,3.65,1.43,0,1.7-.95,1.82-1.4.15-.57.95-.49.95-.49h3.67c.79,0,.75.61.75.61,0,0,.41,6.72-7.45,6.72s-8.29-9.72-8.29-9.72c0,0-1.55-12.9,8.18-12.9s8.31,12.14,8.08,12.9ZM262.61,299.6h0v23.39s.04.7-1.06.7h-4.15c-1.1,0-1.06-.7-1.06-.7v-33.43s-.04-.7,1.06-.7h4.15c1.1,0,1.06.7,1.06.7v10.04ZM271.08,290.74v32.25s.04.7-1.06.7h-4.15c-1.1,0-1.06-.7-1.06-.7v-33.43s-.04-.7,1.06-.7h4.15c1.1,0,1.06.7,1.06.7v1.18ZM280.28,322.99s.04.7-1.06.7h-4.15c-1.1,0-1.06-.7-1.06-.7v-20.34c0-.62.81-.55.81-.55h4.64s.81-.07.81.55v20.34ZM277.14,299.78c-2.08,0-3.77-1.64-3.77-3.67s1.69-3.66,3.77-3.66,3.77,1.64,3.77,3.66-1.69,3.67-3.77,3.67ZM299.25,312.96c0,10.79-6.63,11.08-7.78,11.08-.14,0-.33,0-.53,0-.22,0-.45-.02-.59-.02-1.15,0-7.77-.98-7.77-11.07h0c0-11.62,7.39-11.34,8.16-11.34.05,0,.11,0,.17,0,.06,0,.12,0,.17,0,.77,0,8.16-.28,8.16,11.33h0ZM316.23,307.4v15.59s.04.7-1.06.7h-3.81c-1.1,0-1.06-.7-1.06-.7v-13.36s.11-1.46-.98-1.46c-1.34,0-1.8,1-1.81,1.45v13.37s.04.7-1.06.7h-4.15c-1.1,0-1.06-.7-1.06-.7v-20.34c0-.62.81-.55.81-.55h4.64s.81-.07.81.55v1.63c.49-.02.87-.24.99-.33.39-.29,1.87-2.37,3.85-2.37,4.31,0,3.87,5.83,3.87,5.83Z"/>
    </g>
    <path class="cls-2" d="M269.33,233.01c-1.27,0-2.25.9-2.96,2.71-.71,1.8-1.06,4.33-1.06,7.57s.35,5.81,1.06,7.61c.71,1.8,1.69,2.71,2.96,2.71,1.03,0,1.88-.7,2.56-2.1.35-.67.65-1.82.9-3.46.25-1.64.38-3.18.38-4.63,0-3.24-.35-5.79-1.04-7.63-.69-1.85-1.63-2.77-2.8-2.77Z"/>
    <path class="cls-2" d="M30.31,231.54c-1.27,0-2.27.62-3,1.87-.74,1.24-1.1,2.94-1.1,5.1,0,.08.01.45.04,1.09h8.16v-1.09c0-2.15-.37-3.85-1.1-5.1-.74-1.24-1.74-1.87-3-1.87Z"/>
    <path class="cls-2" d="M80.58,233.01c-1.27,0-2.24.9-2.94,2.71-.69,1.8-1.04,4.33-1.04,7.57s.35,5.81,1.04,7.61c.69,1.8,1.67,2.71,2.94,2.71,1.03,0,1.88-.7,2.56-2.1.32-.64.61-1.79.86-3.44.25-1.65.38-3.2.38-4.66,0-3.24-.34-5.79-1.02-7.63-.68-1.85-1.6-2.77-2.78-2.77Z"/>
    <g>
      <path class="cls-2" d="M0,192.66v94.89l168.28-18.09v-42.1c0-1.4.2-2.28.62-2.64.38-.39,1.32-.59,2.82-.59h4.5c1.47,0,2.4.2,2.78.59.41.36.62,1.24.62,2.64v1.51c1.82-3.66,4.35-5.49,7.59-5.49,1.47,0,2.88.38,4.24,1.15,1.35.77,2.44,1.81,3.27,3.12,2.24,3.58,3.35,8.75,3.35,15.52s-1.22,12.05-3.66,15.77c-.85,1.34-1.93,2.4-3.24,3.17-1.31.77-2.69,1.15-4.13,1.15-2.97,0-5.44-1.7-7.41-5.12v10.1l58.54-6.29s-.03-.02-.05-.03c-.41-.36-.62-1.24-.62-2.64v-18.66c0-2.63-.18-4.36-.53-5.2s-1.07-1.26-2.16-1.26c-1.32,0-2.21.67-2.65,2.01-.24.67-.35,2.15-.35,4.45v18.66c0,1.4-.21,2.28-.62,2.64-.38.39-1.31.59-2.78.59h-4.5c-1.5,0-2.44-.2-2.82-.59-.41-.36-.62-1.24-.62-2.64v-31.92c0-1.4.21-2.28.62-2.64.38-.39,1.32-.59,2.82-.59h4.5c1.47,0,2.4.2,2.78.59.41.36.62,1.24.62,2.64v2.77c.94-1.79,1.84-3.1,2.69-3.94,1.94-1.87,4.24-2.81,6.88-2.81,1.38,0,2.65.32,3.8.96,1.15.64,1.97,1.5,2.47,2.56.79,1.7,1.19,5.02,1.19,9.94v22.44c0,.62-.05,1.12-.13,1.54l9.45-1.02c-.22-.27-.42-.56-.61-.86-2.44-3.75-3.66-9-3.66-15.77s1.12-11.94,3.35-15.52c.82-1.31,1.91-2.36,3.27-3.12,1.35-.77,2.76-1.15,4.24-1.15,3.24,0,5.77,1.83,7.59,5.49v-1.51c0-1.4.21-2.28.62-2.64.38-.39,1.31-.59,2.78-.59h4.5c1.5,0,2.44.2,2.82.59.41.36.62,1.24.62,2.64v29.7l17.97-1.93v-62.45H0ZM43.65,245.53c-.34.43-1.33.65-2.98.65h-14.61c.06,2.68.28,4.66.66,5.91.62,2.1,1.82,3.15,3.62,3.15,1.91,0,3.02-.98,3.31-2.94.12-.67.4-1.11.84-1.32s1.29-.31,2.56-.31h2.47c1.29,0,2.18.13,2.67.4s.73.75.73,1.45c0,1.57-.5,3.22-1.5,4.95-2.27,3.86-5.9,5.79-10.9,5.79-4.62,0-8.33-1.68-11.12-5.03-2.77-3.38-4.15-8.05-4.15-14.01,0-6.88,1.57-12.22,4.72-16.02,2.68-3.22,6.1-4.82,10.28-4.82,4.38,0,7.8,1.62,10.24,4.87,2.44,3.24,3.66,7.76,3.66,13.55,0,2.07-.17,3.32-.51,3.75ZM60.36,259.27c0,1.4-.21,2.28-.62,2.64-.38.39-1.31.59-2.78.59h-4.5c-1.5,0-2.44-.2-2.82-.59-.41-.36-.62-1.24-.62-2.64v-54.82c0-1.4.21-2.28.62-2.64.38-.39,1.32-.59,2.82-.59h4.5c1.47,0,2.4.2,2.78.59.41.36.62,1.24.62,2.64v54.82ZM92.45,257.25c-2.65,4-6.6,6-11.87,6-3.33,0-6.22-.89-8.69-2.68-2.5-1.82-4.34-4.71-5.52-8.68-.79-2.74-1.19-5.61-1.19-8.6,0-5.45,1.15-10.02,3.44-13.72,1.47-2.35,3.53-4.05,6.18-5.12,1.79-.73,3.71-1.09,5.74-1.09,4.97,0,8.76,1.73,11.36,5.18,2.6,3.45,3.91,8.47,3.91,15.04,0,5.7-1.12,10.26-3.35,13.67ZM130.58,262.1c-.51.27-1.41.4-2.67.4h-5.03c-1.35,0-2.19-.1-2.52-.29-.32-.2-.75-.88-1.28-2.06l-7.06-15.43v14.55c0,1.4-.21,2.28-.62,2.64-.38.39-1.31.59-2.78.59h-4.5c-1.5,0-2.44-.2-2.82-.59-.41-.36-.62-1.24-.62-2.64v-54.82c0-1.4.2-2.28.62-2.64.38-.39,1.32-.59,2.82-.59h4.5c1.47,0,2.4.2,2.78.59.41.36.62,1.24.62,2.64v33.13l5.21-11.11c.18-.39.29-.66.35-.8.32-.7.67-1.13,1.04-1.3.37-.17,1.17-.25,2.41-.25h4.63c1.18,0,1.96.08,2.34.25.71.31,1.06.84,1.06,1.59,0,.39-.31,1.12-.93,2.18l-6.75,11.66,9.18,18.75c.53,1.03.79,1.75.79,2.14,0,.67-.26,1.14-.77,1.41ZM162.15,259.27c0,1.4-.21,2.28-.62,2.64-.38.39-1.32.59-2.82.59h-4.5c-1.47,0-2.4-.2-2.78-.59-.41-.36-.62-1.24-.62-2.64v-1.13c-1.97,3.41-4.46,5.12-7.46,5.12-1.41,0-2.77-.38-4.08-1.15-1.31-.77-2.39-1.82-3.24-3.17-2.44-3.75-3.66-9-3.66-15.77s1.12-11.94,3.35-15.52c.82-1.31,1.91-2.36,3.27-3.12,1.35-.77,2.76-1.15,4.24-1.15,3.24,0,5.77,1.83,7.59,5.49v-1.51c0-1.4.21-2.28.62-2.64.38-.39,1.31-.59,2.78-.59h4.5c1.5,0,2.44.2,2.82.59.41.36.62,1.24.62,2.64v31.92ZM214.32,259.27c0,1.4-.21,2.28-.62,2.64-.38.39-1.32.59-2.82.59h-4.5c-1.44,0-2.37-.2-2.78-.59-.41-.36-.62-1.24-.62-2.64v-31.92c0-1.4.2-2.28.62-2.64.41-.39,1.34-.59,2.78-.59h4.5c1.5,0,2.44.2,2.82.59.41.36.62,1.24.62,2.64v31.92ZM213.53,217.83c-1.32,1.17-2.86,1.76-4.64,1.76-1.95,0-3.6-.67-4.96-2.01-1.36-1.34-2.04-2.96-2.04-4.87s.69-3.47,2.06-4.78c1.37-1.31,3.05-1.97,5.02-1.97s3.51.67,4.85,2.01c1.34,1.34,2.02,2.94,2.02,4.78,0,2.04-.77,3.73-2.32,5.07Z"/>
      <path class="cls-2" d="M147.8,233.01c-1.27,0-2.25.9-2.96,2.71-.71,1.8-1.06,4.33-1.06,7.57s.35,5.81,1.06,7.61c.71,1.8,1.69,2.71,2.96,2.71,1.03,0,1.88-.7,2.56-2.1.35-.67.65-1.82.9-3.46.25-1.64.38-3.18.38-4.63,0-3.24-.35-5.79-1.04-7.63-.69-1.85-1.63-2.77-2.8-2.77Z"/>
    </g>
    <path class="cls-2" d="M182.62,253.6c1.27,0,2.25-.9,2.96-2.71.71-1.8,1.06-4.34,1.06-7.61s-.35-5.77-1.06-7.57c-.71-1.8-1.69-2.71-2.96-2.71-1.06,0-1.91.7-2.56,2.1-.85,1.71-1.28,4.4-1.28,8.1,0,3.24.35,5.79,1.04,7.63.69,1.85,1.62,2.77,2.8,2.77Z"/>
  </g>
</svg>